<svg xmlns="http://www.w3.org/2000/svg" viewBox="0 0 512 512">
  <defs>
    <linearGradient id="glass" x1="0" y1="0" x2="1" y2="1">
      <stop offset="0" stop-color="#111a38"/>
      <stop offset=".48" stop-color="#050a1c"/>
      <stop offset="1" stop-color="#02040e"/>
    </linearGradient>
    <radialGradient id="halo" cx="50%" cy="42%" r="58%">
      <stop offset="0" stop-color="#2f66f0" stop-opacity=".52"/>
      <stop offset="1" stop-color="#2f66f0" stop-opacity="0"/>
    </radialGradient>
    <linearGradient id="shine" x1="0" y1="0" x2="0" y2="1">
      <stop offset="0" stop-color="#fff" stop-opacity=".24"/>
      <stop offset=".5" stop-color="#fff" stop-opacity=".04"/>
      <stop offset="1" stop-color="#fff" stop-opacity="0"/>
    </linearGradient>
  </defs>
  <rect x="8" y="8" width="496" height="496" rx="112" fill="url(#glass)" stroke="#6c9cff" stroke-opacity=".28" stroke-width="5"/>
  <circle cx="256" cy="252" r="190" fill="url(#halo)"/>
  <path d="M32 120Q32 32 120 32H392Q480 32 480 120V170Q256 105 32 170Z" fill="url(#shine)"/>
  <g fill="#2563eb">
    <path d="M74 386L256 88L438 386H380L256 188L133 386Z"/>
    <path d="M172 386L256 239L345 386H285L256 326L226 386Z"/>
    <path d="M383 62Q389 96 423 102Q389 108 383 142Q377 108 343 102Q377 96 383 62Z"/>
  </g>
  <g fill="#8bbaff" opacity=".72"><circle cx="98" cy="112" r="3"/><circle cx="414" cy="358" r="3"/><circle cx="438" cy="128" r="2"/></g>
</svg>
