<svg xmlns="http://www.w3.org/2000/svg" viewBox="0 0 512 512"><defs><linearGradient id="glass" x1="0" y1="0" x2="1" y2="1"><stop stop-color="#181822"/><stop offset=".55" stop-color="#030306"/><stop offset="1" stop-color="#080812"/></linearGradient><linearGradient id="brand" x1=".1" y1=".9" x2=".9" y2=".1"><stop stop-color="#ff5a32"/><stop offset=".43" stop-color="#ffb05c"/><stop offset=".72" stop-color="#8c6dff"/><stop offset="1" stop-color="#6f8cff"/></linearGradient><linearGradient id="shine" x1="0" y1="0" x2="0" y2="1"><stop stop-color="#fff" stop-opacity=".25"/><stop offset="1" stop-color="#fff" stop-opacity="0"/></linearGradient></defs><rect x="8" y="8" width="496" height="496" rx="112" fill="url(#glass)" stroke="#ff8e6e" stroke-opacity=".35" stroke-width="5"/><path d="M32 120Q32 32 120 32H392Q480 32 480 120V170Q256 105 32 170Z" fill="url(#shine)"/><g fill="url(#brand)"><path d="M74 386L256 88L438 386H380L256 188L133 386Z"/><path d="M172 386L256 239L345 386H285L256 326L226 386Z"/><path d="M383 62Q389 96 423 102Q389 108 383 142Q377 108 343 102Q377 96 383 62Z"/></g></svg>
